# xmcd
#
# Track frame offsets: 
#        183
#        10770
#        21963
#        33408
#        44298
#        55198
#        68553
#        80565
#        93508
#        109700
#        122433
#        135858
#        148308
#        160178
#        179768
#        189833
#        200100
#        211420
#
# Disc length: 2978 seconds
#
# Revision: 1
# Processed by: cddbd v1.5.2PL0 Copyright (c) Steve Scherf et al.
# Submitted via: ExactAudioCopy v0.99pb5
#
DISCID=f70ba012
DTITLE=Various Artist - Die große Schlagerparty - CD 2
DYEAR=1995
DGENRE=Schlager
TTITLE0=Freddy - Guitar Playing Joe
TTITLE1=Bill Ramsey - Wumba-Tumba Schokoladeneisverkäufer
TTITLE2=Rainer Bertram - Itsy Bitsy Teenie Weenie Honolulu Strand-Biki
TTITLE2=ni
TTITLE3=Jack Terry - Marina
TTITLE4=Trude Herr - Ich will keine Schokolade
TTITLE5=Leo Leandros - Mustafa
TTITLE6=Connie Francis - Paradiso
TTITLE7=Gerhard Wendland - Tanze mit mir in den Morgen
TTITLE8=Hazy Osterwald Sextett/ Kriminal Tango
TTITLE9=Gus Backus - Da sprach der alte Häuptling
TTITLE10=Old Merry Tale Jazzband - Am Sonntag will mein Süßer mit mir 
TTITLE10=segeln gehn
TTITLE11=Bill Ramsey - Pigalle (Die große Mausefalle)
TTITLE12=Blue Capris - Zwei kleine Italiener
TTITLE13=Freddy - Auf der Reeperbahn nachts um halb eins
TTITLE14=Die Tahiti-Tamourés - Wini-Wini
TTITLE15=Connie Francis - Die Liebe ist ein seltsames Spiel
TTITLE16=Roy Black - Du bist nicht allein
TTITLE17=Ivo Robic - Rot ist der Wein
EXTD=
EXTT0=
EXTT1=
EXTT2=
EXTT3=
EXTT4=
EXTT5=
EXTT6=
EXTT7=
EXTT8=
EXTT9=
EXTT10=
EXTT11=
EXTT12=
EXTT13=
EXTT14=
EXTT15=
EXTT16=
EXTT17=
PLAYORDER=
